<svg viewBox="0 0 200 200" xmlns="http://www.w3.org/2000/svg">
  <path fill="#FF0066" d="M41.3,-67.1C55.5,-63.3,70.4,-56.3,79.4,-44.5C88.4,-32.8,91.6,-16.4,88.4,-1.8C85.2,12.8,75.8,25.5,64.6,33.6C53.5,41.6,40.7,45,29.7,45.6C18.6,46.2,9.3,44.1,0.6,43.1C-8.2,42.2,-16.4,42.4,-25.6,40.7C-34.8,39,-45,35.5,-52.7,28.4C-60.5,21.3,-65.7,10.6,-66.7,-0.6C-67.8,-11.8,-64.5,-23.6,-56.1,-29.4C-47.6,-35.2,-33.8,-35,-23.6,-41.1C-13.4,-47.1,-6.7,-59.4,3.4,-65.3C13.5,-71.2,27.1,-70.8,41.3,-67.1Z" transform="translate(100 100)" />
</svg>