<svg xmlns="http://www.w3.org/2000/svg" width="351.258" height="342.482" viewBox="0 0 351.258 342.482">
  <path id="github" d="M117.487,276.328c0,1.416-1.629,2.549-3.683,2.549-2.337.212-3.966-.921-3.966-2.549,0-1.416,1.629-2.549,3.683-2.549C115.646,273.566,117.487,274.7,117.487,276.328Zm-22.024-3.187c-.5,1.416.921,3.045,3.045,3.47,1.841.708,3.966,0,4.391-1.416s-.921-3.045-3.045-3.683C98.012,271.017,95.959,271.725,95.463,273.141Zm31.3-1.2c-2.054.5-3.47,1.841-3.258,3.47.212,1.416,2.054,2.337,4.178,1.841,2.054-.5,3.47-1.841,3.258-3.258C130.73,272.646,128.818,271.725,126.764,271.938ZM173.363.563C75.138.563,0,75.134,0,173.359,0,251.9,49.431,319.1,120.037,342.756c9.065,1.629,12.252-3.966,12.252-8.569,0-4.391-.212-28.611-.212-43.482,0,0-49.573,10.623-59.983-21.1,0,0-8.073-20.608-19.687-25.919,0,0-16.217-11.118,1.133-10.906a37.382,37.382,0,0,1,27.336,18.271c15.509,27.336,41.5,19.475,51.626,14.8,1.629-11.331,6.232-19.192,11.331-23.866C104.244,237.591,64.3,231.854,64.3,163.727c0-19.475,5.382-29.248,16.713-41.712-1.841-4.6-7.861-23.582,1.841-48.085,14.8-4.6,48.864,19.121,48.864,19.121a167.3,167.3,0,0,1,88.948,0s34.064-23.795,48.865-19.121c9.7,24.574,3.683,43.482,1.841,48.085,11.331,12.535,18.271,22.308,18.271,41.712,0,68.339-41.712,73.792-81.3,78.254,6.515,5.595,12.039,16.217,12.039,32.86,0,23.866-.212,53.4-.212,59.2,0,4.6,3.258,10.2,12.252,8.569C303.243,319.1,351.258,251.9,351.258,173.359,351.258,75.134,271.587.563,173.363.563ZM68.835,244.814c-.921.708-.708,2.337.5,3.683,1.133,1.133,2.762,1.629,3.683.708.921-.708.708-2.337-.5-3.683C71.385,244.389,69.756,243.894,68.835,244.814Zm-7.648-5.736c-.5.921.212,2.054,1.629,2.762a2.107,2.107,0,0,0,3.045-.5c.5-.921-.212-2.054-1.629-2.762C62.816,238.157,61.683,238.37,61.187,239.078Zm22.945,25.211c-1.133.921-.708,3.045.921,4.391,1.629,1.629,3.683,1.841,4.6.708.921-.921.5-3.045-.921-4.391C87.177,263.369,85.053,263.156,84.132,264.289Zm-8.073-10.41c-1.133.708-1.133,2.549,0,4.178s3.045,2.337,3.966,1.629c1.133-.921,1.133-2.762,0-4.391C79.033,253.666,77.192,252.958,76.059,253.879Z" transform="translate(0 -0.563)"/>
</svg>
