<svg xmlns="http://www.w3.org/2000/svg" width="354.27" height="354.262" viewBox="0 0 354.27 354.262">
  <path id="linked-in" d="M79.3,354.263H5.852V117.74H79.3ZM42.536,85.476C19.05,85.476,0,66.023,0,42.537a42.536,42.536,0,1,1,85.072,0C85.072,66.023,66.014,85.476,42.536,85.476ZM354.191,354.263H280.9V239.125c0-27.44-.554-62.63-38.187-62.63-38.187,0-44.039,29.812-44.039,60.653V354.263H125.307V117.74H195.75V150h1.028c9.806-18.583,33.758-38.195,69.494-38.195,74.333,0,88,48.949,88,112.528V354.263Z" transform="translate(0 -0.001)"/>
</svg>
